# xmcd
#
# Track frame offsets:
#	150
#	13850
#	26255
#	38605
#	48927
#	61092
#	74482
#	87782
#	97775
#	111005
#	122555
#	135790
#	147357
#	159735
#	168227
#
# Disc length: 2393
#
# Revision: 1
# Processed by: cddbd v1.5.1PL0 Copyright (c) Steve Scherf et al.
# Submitted via: EasyCDDAExtractor 5.0.5.1
# Normalized: r0:DSETVAR1
#
DISCID=b209570f
DTITLE=Various Artist - Country Party disk 2
DYEAR=1992
DGENRE=country
TTITLE0=Jimmy Dean - Big Bad John
TTITLE1=Johnny Cash - Folsom Prison Blues
TTITLE2=Johnny Preston - Running Bear
TTITLE3=Dave Dudley - Six Days on the Road
TTITLE4=B J Thomas - Hooked on a Feeling
TTITLE5=Gene Pitney - The Man Who Shot Liberty Valance
TTITLE6=Tammy Wynette - DIVORCE
TTITLE7=Jimmie Rogers - Honeycomb
TTITLE8=Kenny Rogers - Ruby, Don't Take Your Love to Town
TTITLE9=Lynn Anderson - That'll Be The Day
TTITLE10=Johnny Russell - Crystal Chandeliers
TTITLE11=Johnny Cash - I Walk The Line
TTITLE12=Kenny Rogers - Rueben James
TTITLE13=Roger Miller - Dang Me
TTITLE14=Tom T Hall - Ravishing Ruby
EXTD=
EXTT0=
EXTT1=
EXTT2=
EXTT3=
EXTT4=
EXTT5=
EXTT6=
EXTT7=
EXTT8=
EXTT9=
EXTT10=
EXTT11=
EXTT12=
EXTT13=
EXTT14=
PLAYORDER=
